<svg id="c1" data-name="c 1" xmlns="http://www.w3.org/2000/svg" xmlns:xlink="http://www.w3.org/1999/xlink" viewBox="0 0 800 800">
  <defs>
    <style>
      .cls-1 {
        fill: url(#g3);
      }
    </style>
    <linearGradient id="g3" data-name="g3" x1="149.34" y1="168.23" x2="650.29" y2="637.76" gradientUnits="userSpaceOnUse">
      <stop offset="0" stop-color="#cb180a"/>
      <stop offset=".37" stop-color="#cd1909"/>
      <stop offset=".6" stop-color="#d61d07"/>
      <stop offset=".79" stop-color="#e52404"/>
      <stop offset=".97" stop-color="#f92d00"/>
      <stop offset="1" stop-color="#ff3000"/>
    </linearGradient>
  </defs>
  <path class="cls-1" d="m648.34,479.05c-5.33,32.62-17.15,61.33-35.44,86.12-18.31,24.8-41.19,44.1-68.64,57.91-27.46,13.81-57.66,20.72-90.61,20.72-28.29,0-54.17-4.74-77.63-14.23-22.26-9-41.18-21.63-56.84-37.82,10.14,7,21.23,12.96,33.3,17.84,23.46,9.49,49.34,14.23,77.63,14.23,32.95,0,63.15-6.9,90.61-20.72,27.46-13.81,50.34-33.11,68.64-57.91,18.3-24.79,30.12-53.5,35.44-86.12,4.99-28.96,4.07-55.49-2.75-79.63-6.83-24.13-18.31-44.93-34.45-62.4-.87-.95-1.8-1.83-2.7-2.76,9.59,6.63,18.35,14.2,26.24,22.73,16.14,17.47,27.62,38.28,34.45,62.4,6.82,24.13,7.74,50.67,2.75,79.63Zm-100,15.88c.21.22.47.48.69.69,6.51,6.13,16.75,5.82,22.87-.69,6.12-6.51,5.81-16.75-.69-22.87l-273.47-250.6,250.6,273.48m-18.63,48.73c.21.22.47.48.69.69,6.51,6.13,16.75,5.82,22.87-.69,6.12-6.51,5.81-16.75-.69-22.87L164.5,155.58l365.2,388.08m-47.3,18.63c.21.22.47.48.69.69,6.51,6.13,16.75,5.82,22.87-.69,6.12-6.51,5.81-16.75-.69-22.87l-273.47-250.6,250.6,273.48m-91.19,6.46c.1.11.21.22.32.32,2.19,2.01,5.6,1.87,7.62-.32,2.02-2.19,1.87-5.6-.32-7.62l-94.68-87.06,87.06,94.68m178.94-179.78c.1.1.21.22.32.32,2.19,2.01,5.61,1.87,7.62-.32,2.02-2.19,1.87-5.6-.32-7.62l-94.68-87.06,87.06,94.69m-323.6-16.23c4.87,5.85,184.93,198.16,188.58,201.81,3.65,3.65,9.58,3.65,13.23,0,3.65-3.65,3.65-9.58,0-13.23-3.65-3.65-196.06-183.61-201.81-188.58Zm141.5-128.6c4.87,5.85,178.77,192,182.43,195.65,3.65,3.65,9.58,3.65,13.23,0,3.65-3.65,3.65-9.58,0-13.23-3.65-3.65-189.91-177.46-195.65-182.43Z"/>
</svg>